<svg width="70" height="64" viewBox="0 0 70 64" fill="none" xmlns="http://www.w3.org/2000/svg">
<g id="manager-icon 1" clip-path="url(#clip0_751_371)">
<g id="Group">
<path id="Vector" fill-rule="evenodd" clip-rule="evenodd" d="M28.3805 50.6574L32.0435 61.4757L33.8835 55.0534L32.9834 54.0574C32.5789 53.4621 32.4878 52.9412 32.71 52.489C33.1999 51.516 34.2082 51.6991 35.1538 51.6991C36.145 51.6991 37.3698 51.5102 37.6774 52.7581C37.7856 53.1759 37.6546 53.611 37.3641 54.0574L36.4583 55.0534L38.2983 61.4757L41.6138 50.6574C44.0064 52.821 51.0815 53.2503 53.7191 54.7271C54.5508 55.1965 55.3027 55.7861 55.9123 56.5874C57.5529 58.7683 57.6725 58.9114 58.0941 61.6188C57.9574 63.0441 57.1541 63.8684 55.5648 63.9943H14.4352C12.8459 63.8741 12.0426 63.0498 11.9059 61.6188C12.3275 58.9114 12.4528 58.7683 14.0877 56.5874C14.6916 55.7803 15.4435 55.1908 16.2809 54.7271C18.9128 53.2503 25.9937 52.8153 28.3805 50.6574ZM15.9391 49.9419C15.8936 49.8503 15.8423 49.7701 15.7853 49.69C15.529 49.2664 15.2726 48.8486 15.0106 48.3678C14.7542 47.8469 14.4979 47.3603 14.2643 46.9081C14.0365 46.4216 13.8143 45.9007 13.6206 45.3856C13.4611 44.9334 13.2674 44.4182 13.0737 43.8C12.7889 42.9242 11.9743 42.3805 11.1084 42.3805H5.53711C5.34342 42.3805 5.15544 42.3518 5.01872 42.2832C4.89339 42.2145 4.73389 42.1229 4.63704 41.997C4.51172 41.8653 4.40918 41.7394 4.35221 41.6134C4.28385 41.4875 4.25537 41.2872 4.25537 41.0983V34.0292C4.25537 33.8345 4.28385 33.6743 4.32373 33.5426C4.39209 33.411 4.48324 33.2564 4.64844 33.0904C4.77376 32.9645 4.90479 32.8615 5.03011 32.8328C5.16113 32.7642 5.35482 32.7355 5.54281 32.7355H10.6641C11.6952 32.7355 12.5326 31.9857 12.7262 31.0183C12.8516 30.4688 12.9826 29.9537 13.1079 29.4958C13.2674 28.9749 13.4326 28.4883 13.6263 27.9732C13.82 27.4866 14.008 26.9657 14.27 26.4849C14.4979 25.964 14.7542 25.5176 14.9764 25.0654C15.4264 24.224 15.2612 23.2509 14.6232 22.6098L10.6299 18.5629C10.6014 18.5343 10.6014 18.5343 10.5615 18.5343C10.4362 18.4084 10.3337 18.2767 10.2767 18.1508C10.2083 18.0249 10.2083 17.8932 10.2083 17.6986C10.2083 17.504 10.2368 17.3437 10.3052 17.2121C10.3735 17.0518 10.4647 16.9259 10.6299 16.7599L15.5575 11.8372C15.717 11.677 15.8423 11.5796 16.0075 11.511C16.1385 11.4423 16.2923 11.4136 16.4917 11.4136C16.6854 11.4136 16.8449 11.4423 16.9759 11.511C17.1069 11.5796 17.2607 11.6712 17.3975 11.7972H17.4259L21.0661 15.4548C21.7725 16.1646 22.9004 16.2619 23.7093 15.6837C24.1309 15.4262 24.5467 15.1686 25.0252 14.9053C25.5379 14.6477 26.0278 14.3901 26.4779 14.1554C26.9621 13.9265 27.4805 13.7032 27.9932 13.5086C28.4432 13.3484 28.9559 13.1537 29.5711 12.9591C30.4427 12.6729 30.9839 11.8544 30.9839 10.9843V5.37483C30.9839 5.18022 31.0124 4.99132 31.0807 4.85395C31.1491 4.72802 31.2402 4.59637 31.3371 4.47044C31.4681 4.34451 31.5934 4.24148 31.7188 4.21286C31.8441 4.14417 32.0435 4.11555 32.2371 4.11555H37.1875H37.2445H37.7515C37.9452 4.11555 38.1331 4.14417 38.2699 4.21286C38.3952 4.24148 38.5262 4.34451 38.6515 4.47044C38.7484 4.59637 38.8452 4.72802 38.9079 4.85395C38.9762 4.97988 39.0047 5.18022 39.0047 5.37483V10.9786C39.0047 11.8544 39.5516 12.6615 40.4175 12.9534C41.027 13.148 41.5454 13.3369 41.9954 13.5029C42.5138 13.6975 43.0265 13.9265 43.5107 14.1497C43.9608 14.3787 44.445 14.6363 44.9634 14.8996C45.4476 15.1571 45.8634 15.4147 46.2793 15.678C47.0825 16.2619 48.2104 16.1646 48.9225 15.4491L52.5627 11.7914H52.5911C52.7165 11.6655 52.876 11.5625 53.0127 11.5052C53.138 11.4365 53.2975 11.4079 53.4969 11.4079C53.6906 11.4079 53.8501 11.4365 53.9811 11.5052C54.1463 11.5739 54.266 11.6655 54.4312 11.8315L59.3587 16.7541C59.5182 16.9144 59.6151 17.0403 59.6834 17.2063C59.7518 17.3323 59.7803 17.4925 59.7803 17.6929C59.7803 17.8875 59.7803 18.0191 59.7119 18.1451C59.6436 18.2767 59.5524 18.4026 59.4271 18.5286C59.3986 18.5286 59.3986 18.5286 59.3587 18.5572L55.3654 22.6041C54.7217 23.2509 54.5622 24.224 55.0122 25.0597C55.2401 25.5119 55.4964 25.964 55.7186 26.4792C55.9749 26.9657 56.1686 27.4866 56.3623 27.9674C56.556 28.4826 56.7155 28.9749 56.8807 29.49C57.006 29.9422 57.137 30.4574 57.2624 31.0126C57.4561 31.98 58.2935 32.7298 59.3245 32.7298H64.4401C64.6338 32.7298 64.8218 32.7584 64.9585 32.8271C65.0838 32.8557 65.2148 32.953 65.3402 33.0847C65.5054 33.2507 65.5965 33.411 65.6649 33.5369C65.6934 33.6628 65.7332 33.8231 65.7332 34.0234V41.0811C65.7332 41.2757 65.7048 41.4646 65.6364 41.602C65.568 41.7337 65.4712 41.8596 65.3516 41.9855C65.2547 42.1114 65.0952 42.2145 64.9699 42.2717C64.8389 42.3404 64.6452 42.369 64.4572 42.369H58.8802C58.0086 42.369 57.2054 42.9185 56.9149 43.7886C56.7212 44.401 56.5332 44.9219 56.368 45.3741C56.1743 45.895 55.9465 46.4102 55.7243 46.8967C55.2401 47.8526 54.773 48.7684 54.209 49.6786C54.152 49.7587 54.1008 49.8388 54.0552 49.9304H58.9315C59.1366 49.5183 59.3416 49.0718 59.5581 48.6139C59.8145 48.0301 60.0708 47.4519 60.3044 46.8681C60.3329 46.7708 60.4012 46.6391 60.4354 46.5418H64.5597C65.3003 46.5418 66.0124 46.4159 66.6504 46.1583C67.2941 45.9007 67.9093 45.4771 68.4277 44.962C68.9461 44.4468 69.362 43.8573 69.6183 43.1761C69.8747 42.4949 70 41.8138 70 41.0754V34.0234C70 33.3137 69.8405 32.6039 69.5785 31.9513C69.3221 31.3045 68.9347 30.7207 68.422 30.2055L68.3936 30.1769C67.8752 29.656 67.2941 29.2382 66.6561 28.9749C66.0124 28.6887 65.3003 28.5513 64.5654 28.5513H61.0506C61.0506 28.454 61.0221 28.391 60.9823 28.2937C60.7886 27.6812 60.6006 27.0631 60.3727 26.4792C60.1164 25.8667 59.8885 25.2772 59.6322 24.7334C59.6037 24.6647 59.5353 24.5731 59.5068 24.4758L62.4121 21.528C62.959 21.0414 63.3464 20.4633 63.6312 19.8108C63.8875 19.1639 64.0527 18.4484 64.0527 17.71C64.0527 16.9602 63.9274 16.2905 63.6312 15.6093C63.3464 14.9625 62.9533 14.3787 62.4406 13.8635H62.4121L57.4845 8.94088C56.9718 8.42572 56.3851 8.03649 55.7072 7.74457C55.0293 7.45837 54.3514 7.32099 53.6165 7.32099C52.9102 7.32099 52.2038 7.44692 51.5259 7.74457C50.848 8.00215 50.2669 8.42572 49.7485 8.94088L47.2363 11.4365L47.0426 11.3392C46.5243 11.053 45.9432 10.7897 45.3337 10.4978C44.7526 10.2402 44.1772 9.98265 43.5962 9.74797C43.4994 9.71935 43.3683 9.65066 43.2715 9.61631V5.46642C43.2715 4.71657 43.1462 4.0068 42.8898 3.36571C42.6335 2.71317 42.2119 2.10071 41.6992 1.57982C41.1523 1.05894 40.5713 0.641088 39.9219 0.383508C39.2497 0.125928 38.5718 0 37.8255 0H35.2848H34.7152H32.1745C31.4282 0 30.7617 0.125928 30.0838 0.383508C29.4458 0.641088 28.8591 1.06466 28.3065 1.57982C27.7881 2.10071 27.3722 2.71317 27.1159 3.36571C26.8595 4.0068 26.7342 4.72802 26.7342 5.46642V9.61059C26.6374 9.63921 26.5063 9.7079 26.4095 9.74224C25.8285 9.9712 25.2531 10.2288 24.672 10.4921C24.0625 10.7783 23.4814 11.0416 22.9631 11.3335L22.7694 11.4308L20.2572 8.93516C19.7445 8.42 19.1577 7.99642 18.4798 7.73884C17.8019 7.45264 17.0955 7.31527 16.3892 7.31527C15.6429 7.31527 14.9764 7.4412 14.2985 7.73884C13.6206 8.02504 13.0396 8.42 12.5212 8.93516L7.59359 13.8578H7.5651C7.05241 14.373 6.66504 14.9625 6.37451 15.6036C6.08968 16.279 5.95296 16.9602 5.95296 17.6986C5.95296 18.4484 6.11247 19.1582 6.37451 19.7993C6.65934 20.4461 7.05241 21.03 7.59928 21.5165L10.4989 24.4644C10.4704 24.5617 10.402 24.659 10.3735 24.7219C10.1172 25.2714 9.88932 25.8553 9.62728 26.4678C9.39941 27.0516 9.20573 27.6641 9.01774 28.2823C8.98926 28.3796 8.94938 28.4425 8.94938 28.5398H5.44596C4.69971 28.5398 3.99333 28.6715 3.35531 28.9634C2.71159 29.221 2.13053 29.6446 1.61784 30.1597L1.58936 30.1884C1.07096 30.7035 0.68929 31.2931 0.432943 31.9342C0.159505 32.5924 0 33.3137 0 34.0234V41.0754C0 41.8252 0.125326 42.4949 0.381673 43.1761C0.638021 43.8573 1.05957 44.4411 1.57227 44.962C2.08496 45.4829 2.7002 45.9007 3.34961 46.1583C3.99333 46.4159 4.7054 46.5418 5.44027 46.5418H9.56462C9.5931 46.6391 9.66146 46.7708 9.69564 46.8681C9.9235 47.4519 10.1799 48.0301 10.4419 48.6139C10.6641 49.0775 10.8634 49.524 11.0685 49.9304H15.9391V49.9419ZM26.7228 35.1797C26.2671 35.1969 25.9253 35.2942 25.6917 35.4487C25.555 35.5403 25.4582 35.6548 25.3955 35.7921C25.3215 35.941 25.293 36.1299 25.2987 36.3417C25.3158 36.9713 25.6462 37.7841 26.2728 38.7228L26.2785 38.74L28.3236 42.0084C29.1439 43.3192 30.0041 44.6586 31.0693 45.6374C32.0947 46.5819 33.3423 47.2172 34.9943 47.223C36.7773 47.2287 38.0876 46.5647 39.1414 45.563C40.2409 44.527 41.1125 43.1074 41.9727 41.6821L44.2741 37.87C44.7013 36.8854 44.8608 36.2272 44.764 35.8379C44.7013 35.609 44.4507 35.4945 44.0234 35.4773C43.9323 35.4716 43.8411 35.4716 43.7443 35.4716C43.6418 35.4773 43.5335 35.4831 43.4196 35.4888C43.3569 35.4945 43.3 35.4888 43.243 35.4773C43.0379 35.4888 42.8272 35.4716 42.6107 35.443L43.3968 31.9342C39.187 31.8827 36.2988 31.1443 32.8923 28.952C31.77 28.2365 31.4339 27.4122 30.3117 27.4924C29.4686 27.6526 28.7565 28.0361 28.1869 28.6486C27.6457 29.2324 27.2355 30.0338 26.9678 31.0584L27.4178 35.1911C27.1786 35.2197 26.945 35.2083 26.7228 35.1797ZM44.821 34.4413C45.3906 34.613 45.7552 34.9793 45.8976 35.5632C46.0628 36.2157 45.8805 37.1258 45.3394 38.3679C45.328 38.3908 45.3166 38.4137 45.3052 38.4366L42.9753 42.2946C42.0752 43.7828 41.1637 45.2711 39.9447 46.4159C38.6857 47.6007 37.1305 48.3907 35.0057 48.3849C33.0233 48.3792 31.5308 47.6179 30.306 46.4903C29.1211 45.4027 28.2153 44.0004 27.3551 42.6209L25.3101 39.3525C24.5638 38.2306 24.1764 37.206 24.148 36.3645C24.1366 35.9696 24.2049 35.609 24.3473 35.2942C24.5011 34.9622 24.7347 34.6874 25.048 34.4756C25.1961 34.3783 25.3613 34.2925 25.5436 34.2238C25.4126 32.4551 25.3613 30.217 25.4468 28.3452C25.4924 27.9045 25.5721 27.458 25.6974 27.0115C26.2215 25.1341 27.5317 23.6229 29.1553 22.5869C29.7249 22.2206 30.3516 21.9172 31.0181 21.6768C34.943 20.24 40.1554 21.0242 42.9468 24.0522C44.0804 25.2886 44.7982 26.9257 44.952 29.0893L44.821 34.4413Z" fill="black"/>
</g>
</g>
<defs>
<clipPath id="clip0_751_371">
<rect width="70" height="64" fill="white"/>
</clipPath>
</defs>
</svg>
