<svg width="66" height="60" viewBox="0 0 66 60" fill="none" xmlns="http://www.w3.org/2000/svg">
<g clip-path="url(#clip0_751_368)">
<path fill-rule="evenodd" clip-rule="evenodd" d="M33.2576 0C38.8543 0 43.3875 4.5882 43.3875 10.2528C43.3875 15.9174 38.8543 20.5056 33.2576 20.5056C27.6609 20.5056 23.1277 15.9174 23.1277 10.2528C23.1331 4.5882 27.6663 0 33.2576 0ZM16.2151 25.8494C17.6438 23.7782 19.5935 23.6042 22.451 23.2672H43.6829C46.9807 23.8761 49.3064 24.4577 50.8909 27.2302L63.3572 44.4849C64.7805 46.4528 66.0051 47.6814 65.9998 50.3017C65.9944 52.4436 64.9739 54.4115 63.2927 55.5151C61.1336 56.9394 59.4846 56.5208 57.304 55.7488L48.7478 52.7263V60H16.9939V53.1557L7.0574 56.1131C3.81326 56.8252 1.49831 55.6075 0.558373 53.3188C-1.00999 49.5189 0.998802 46.9204 3.05593 44.1152L16.2151 25.8494ZM17.2893 41.3264V29.0024L33.0696 34.4224L49.0432 28.6056V41.4243C38.0164 39.0867 37.5545 49.2036 44.3704 52.4653L32.8762 56.1131L21.7742 52.1718C28.7781 48.91 27.3494 38.4398 17.2893 41.3264Z" fill="#F8F7F7"/>
</g>
<defs>
<clipPath id="clip0_751_368">
<rect width="66" height="60" fill="white"/>
</clipPath>
</defs>
</svg>
